<?xml version="1.0" standalone="no"?>
<!DOCTYPE svg PUBLIC "-//W3C//DTD SVG 20010904//EN"
 "http://www.w3.org/TR/2001/REC-SVG-20010904/DTD/svg10.dtd">
<svg version="1.0" xmlns="http://www.w3.org/2000/svg"
 width="260.000000pt" height="260.000000pt" viewBox="0 0 260.000000 260.000000"
 preserveAspectRatio="xMidYMid meet">
<metadata>
Created by potrace 1.14, written by Peter Selinger 2001-2017
</metadata>
<g transform="translate(0.000000,260.000000) scale(0.100000,-0.100000)"
fill="#000000" stroke="none">
<path d="M1115 2424 c-467 -71 -857 -411 -975 -849 -30 -111 -38 -325 -16
-457 72 -440 344 -757 766 -892 152 -49 233 -61 420 -60 177 0 259 12 414 61
336 106 608 372 711 694 59 186 77 448 42 604 -65 289 -237 538 -490 708 -250
168 -569 238 -872 191z m286 -60 c232 -67 363 -350 400 -861 28 -395 -47 -839
-180 -1063 -88 -148 -188 -215 -321 -215 -59 0 -84 5 -120 24 -74 39 -117 78
-169 156 -241 361 -281 1257 -75 1695 105 222 275 319 465 264z"/>
<path d="M1246 1545 c-40 -43 -59 -134 -60 -280 0 -137 14 -225 45 -287 48
-95 127 -68 165 55 21 71 30 284 15 372 -14 77 -42 139 -70 155 -33 17 -71 11
-95 -15z"/>
</g>
</svg>
